# xmcd
#
# Track frame offsets:
#	150
#	16960
#	35576
#	56553
#	73406
#	91143
#	114317
#	134385
#	156300
#	173980
#	196379
#	216903
#	237520
#	258022
#
# Disc length: 3700 seconds
#
# Revision: 113912037
# Processed by: cddbd v1.5.1PL0 Copyright (c) Steve Scherf et al.
# Submitted via: EasyCDDAExtractor 8.0.2.1
#
DISCID=c80e720e
DTITLE=LL Cool J - Mama Said Knock You Out
DYEAR=1990
DGENRE=Rap
TTITLE0=The Boomin' System
TTITLE1=Around The Way Girl
TTITLE2=Eat Em Up L Chill
TTITLE3=Mr. Good Bar
TTITLE4=Murdergram
TTITLE5=Cheesy Rat Blues
TTITLE6=Farmers Blvd. [Our Anthem]
TTITLE7=Mama Said Knock You Out
TTITLE8=Milky Cereal
TTITLE9=Jingling Baby [Remixed But Still Jingling]
TTITLE10=To Da Break Of Dawn
TTITLE11=6 Minutes Of Pleasure
TTITLE12=Illegal Search
TTITLE13=The Power Of God
EXTD=Increasingly dismissed by hip-hop fans as an old-school relic and a slick
EXTD=pop sellout, LL Cool J rang in the '90s with Mama Said Knock You Out , ah
EXTD=ard-edged artistic renaissance that became his biggest-selling album ever
EXTD=Part of the credit is due to producer Marley Marl , whose thumping, bas
EXTD=s-heavy sound helps LL reclaim the aggression of his early days. Mama Sai
EXTD=d Knock You Out isn't quite as hard as Radio , instead striking a balance
EXTD=between attitude and accessibility. But its greater variety and more lay
EXTD=ered arrangements make it LL's most listenable album, as well as keeping 
EXTD=it in line with more contemporary sensibilities. Marl's productions onthe
EXTD=slower tracks are smooth and soulful, but still funky - as a result, the 
EXTD=ladies'-man side of LL's persona is the most convincing it's ever been, a
EXTD=nd his ballads don't feel sappy for arguably the first time on record.Eve
EXTD=n apart from the sympathetic musical settings, LL is at his most lyricall
EXTD=y acrobatic, and the testosterone-fueled anthems are delivered wit
EXTT0=
EXTT1=
EXTT2=
EXTT3=
EXTT4=
EXTT5=
EXTT6=
EXTT7=
EXTT8=
EXTT9=
EXTT10=
EXTT11=
EXTT12=
EXTT13=
PLAYORDER=
